<svg width="24" height="24" viewBox="0 0 24 24" fill="none" xmlns="http://www.w3.org/2000/svg">
<path fill-rule="evenodd" clip-rule="evenodd" d="M22.5039 7.302L11.8709 14.792H18.0619C16.9559 17.231 14.5219 18.924 11.6969 18.924C10.2873 18.926 8.91069 18.4968 7.75194 17.694L3.74194 20.518C5.8927 22.5487 8.73901 23.6793 11.6969 23.678C18.1569 23.678 23.3939 18.378 23.3939 11.838C23.3939 10.231 23.0779 8.698 22.5039 7.302" fill="#308CF4"/>
<path fill-rule="evenodd" clip-rule="evenodd" d="M21.278 5.046L17.423 7.761C16.156 5.941 14.064 4.753 11.697 4.753C7.83103 4.753 4.69703 7.925 4.69703 11.838C4.69703 13.331 5.15203 14.715 5.93103 15.856L2.07603 18.571C0.718589 16.5885 -0.00530352 14.2407 2.92533e-05 11.838C2.92533e-05 5.3 5.23803 0 11.697 0C15.66 0 19.163 1.994 21.277 5.046" fill="#FFFFFE"/>
</svg>
