<svg width="19px" height="24px" viewBox="0 0 19 24" version="1.1" xmlns="http://www.w3.org/2000/svg" xmlns:xlink="http://www.w3.org/1999/xlink">
    <g id="Page-1" stroke="none" stroke-width="1" fill-rule="evenodd">
        <g id="Artboard" transform="translate(-194.000000, -95.000000)" fill-rule="nonzero">
            <path d="M201.170651,95 L201.813046,95 C202.259992,95.1753293 202.689693,95.4182036 203.079154,95.6934132 C203.204184,96.2201198 203.422627,96.7805988 203.233645,97.319521 C203.072687,97.4682635 202.854244,97.5293413 202.660232,97.6205988 C202.683226,97.8282635 202.716998,98.034491 202.749334,98.2407186 C203.115801,98.2098204 203.471489,98.1135329 203.831489,98.0438323 C203.88107,97.8297006 203.893286,97.5968862 204.029094,97.4150898 C204.058555,97.5602395 204.082268,97.7068263 204.10095,97.8541317 C204.293525,97.9662275 204.480352,98.1250299 204.719633,98.0998802 C206.228615,98.1013174 207.738316,98.0955689 209.246579,98.1005988 C209.412567,98.0876647 209.491609,98.2637126 209.605861,98.3542515 C209.609453,98.0337725 209.608016,97.7132934 209.622387,97.3928144 C209.666938,97.3942515 209.75604,97.3956886 209.800591,97.3964072 C209.809932,97.6780838 209.779753,97.9669461 209.858076,98.2414371 C209.942148,98.2608383 210.028375,98.2665868 210.115322,98.2773653 C210.119633,98.3873054 210.123226,98.4972455 210.129693,98.6079042 C210.593166,98.6215569 211.061669,98.6524551 211.521549,98.5734132 C211.830531,98.5267066 212.143825,98.5583234 212.455681,98.5590419 C212.460711,98.668982 212.470771,98.7782036 212.490172,98.8874251 C212.105022,98.9154491 211.715561,98.9413174 211.332567,98.8773653 C210.718914,98.8026347 210.10598,98.9326946 209.493046,98.8982036 C209.472208,98.9815569 209.452807,99.0649102 209.433405,99.1482635 C208.844184,99.1547305 208.254962,99.1446707 207.666459,99.1475449 C207.47101,99.142515 207.25616,99.1849102 207.132567,99.3494611 C206.959393,99.5657485 206.749573,99.7504192 206.582866,99.9717365 C206.528974,100.377725 206.687777,100.771497 206.779034,101.160958 C206.640352,101.211257 206.50095,101.258683 206.364423,101.310419 C206.224304,101.749461 206.279633,102.311377 205.877956,102.618922 C205.65592,102.785629 205.459753,102.993293 205.2061,103.111856 C205.021429,103.19521 204.823106,103.108263 204.637717,103.080958 C203.945741,102.976048 203.372328,102.550659 202.754363,102.257485 C202.714124,102.42491 202.668855,102.59018 202.623585,102.756168 C202.81113,102.877605 203.053286,102.981078 203.115082,103.219641 C203.209932,103.568862 203.13089,103.935329 203.117238,104.291018 C203.087777,104.617246 203.078435,104.945629 203.047537,105.271856 C203.017358,105.588743 202.834124,105.861078 202.645861,106.107545 C202.469813,106.064431 202.297358,106.013413 202.123465,105.967425 C201.93592,106.36982 202.091849,106.86994 202.400831,107.169581 C203.204184,108.043353 203.639633,109.167904 204.047777,110.263713 C204.117477,110.49509 204.355322,110.632335 204.395561,110.875928 C204.463106,111.134611 204.558675,111.394012 204.536399,111.665629 C204.505501,112.142036 204.47101,112.618443 204.422866,113.093413 C204.389813,113.441916 204.260471,113.789701 204.336639,114.141796 C204.393405,114.428503 204.428615,114.731737 204.323705,115.012695 C204.182148,115.365509 204.183585,115.751377 204.181429,116.125749 C204.187896,116.372216 204.201549,116.643114 204.372567,116.838563 C204.575202,117.087904 204.772807,117.346587 205.014962,117.559281 C205.314603,117.755449 205.727058,117.756886 205.973525,118.040719 C206.05113,118.195928 205.995801,118.377006 205.993645,118.542994 C205.215441,118.660838 204.40131,118.669461 203.645381,118.426587 C203.218555,118.287904 202.747896,118.525749 202.339753,118.291497 C202.362028,117.803593 202.479872,117.327186 202.652328,116.871617 C202.723465,116.531737 202.645861,116.179641 202.638675,115.835449 C202.633645,115.537964 202.480591,115.27497 202.421669,114.988982 C202.252807,114.375329 202.204663,113.736527 202.17592,113.102754 C202.138555,112.791617 202.402268,112.556647 202.413046,112.252695 C202.468375,111.983234 202.427417,111.706587 202.260711,111.483832 C201.97113,111.47521 201.58095,111.551377 201.418555,111.24024 C201.079393,110.738683 200.749573,110.22994 200.41113,109.728383 C200.293286,109.512096 200.010172,109.563114 199.81616,109.468263 C199.642986,109.308743 199.556759,109.083114 199.448974,108.87976 C199.385741,109.112575 199.299513,109.346108 199.127058,109.522156 C198.855441,109.79521 198.757717,110.174611 198.616878,110.520958 C198.517717,110.771018 198.428615,111.027545 198.392687,111.29485 C198.354603,111.496766 198.34598,111.733174 198.164902,111.865389 C197.899034,112.066587 197.804184,112.405749 197.56131,112.627066 C197.380232,112.799521 197.269573,113.034491 197.209932,113.273772 C197.190531,113.49006 197.253046,113.709222 197.198435,113.922635 C197.099992,114.313533 196.884423,114.658443 196.72634,115.025629 C196.614244,115.283593 196.55604,115.561677 196.433166,115.815329 C196.35125,115.992814 196.141429,116.050299 196.026459,116.199042 C195.693046,116.772455 195.586699,117.463713 195.70598,118.114012 C195.801549,118.371976 195.87125,118.642156 195.812328,118.919521 C195.607537,118.947545 195.404184,118.981317 195.198675,119 L194.563465,119 C194.398196,118.965509 194.227896,118.939641 194.076998,118.862036 C193.964184,118.509222 193.982866,118.122635 194.084184,117.769102 C194.232926,117.237365 194.368016,116.702036 194.502387,116.167425 C194.592926,115.90515 194.378076,115.67018 194.397477,115.407904 C194.37592,115.021317 194.615202,114.702275 194.788375,114.379641 C194.950771,114.092934 194.893286,113.747305 195.0061,113.44479 C195.26119,112.788024 195.743346,112.253413 196.030771,111.612455 C196.119154,111.351617 196.023585,111.074251 196.040831,110.805509 C196.062387,110.296048 196.162986,109.793054 196.250651,109.291497 C196.280112,109.098204 196.342627,108.894132 196.267896,108.703713 C196.188136,108.476647 196.132088,108.23521 196.163705,107.993054 C196.196759,107.770299 196.063825,107.548982 196.147178,107.331257 C196.19101,107.146587 196.360591,107.042395 196.496399,106.927425 C196.520831,106.168623 196.244902,105.422754 196.360591,104.666108 C196.492807,104.502275 196.705501,104.443353 196.890172,104.360719 C196.619274,104.304671 196.348375,104.247904 196.078914,104.188263 C196.068136,103.882156 196.109813,103.578922 196.173765,103.28 C196.272926,102.813653 196.218316,102.331497 196.292328,101.862275 C196.303825,101.742994 196.433884,101.702754 196.536639,101.698443 C196.782387,101.680479 197.030292,101.668982 197.271729,101.610778 C197.199872,101.017964 197.140232,100.412934 197.273884,99.822994 C197.403226,99.1267066 197.715082,98.4210778 198.299274,97.9899401 C198.701669,97.7183234 199.282986,97.5580838 199.703346,97.8821557 C199.737837,97.8584431 199.806819,97.8117365 199.84131,97.7887425 C199.596998,97.1298204 199.65089,96.3681437 200.038914,95.7746108 C200.289693,95.3700599 200.729453,95.1401198 201.170651,95 Z M205.11628,99.5334132 C205.094723,99.7058683 205.041549,99.8768862 204.874843,99.959521 C205.094723,99.9451497 205.317477,99.9458683 205.534483,99.8984431 C205.529453,99.771976 205.525142,99.6462275 205.520112,99.5197605 C205.384304,99.5226347 205.249932,99.5269461 205.11628,99.5334132 Z M204.660711,100.020599 C204.642028,100.04503 204.603944,100.092455 204.585262,100.116886 C204.619753,100.350419 204.794363,100.541557 204.910771,100.744192 C205.080352,100.505629 205.252088,100.267066 205.413765,100.022754 C205.162986,100.011257 204.910771,99.9947305 204.660711,100.020599 Z" id="Icon"></path>
        </g>
    </g>
</svg>